<?xml version="1.0" encoding="UTF-8"?>
<svg id="Layer_1" data-name="Layer 1" xmlns="http://www.w3.org/2000/svg" version="1.1" viewBox="0 0 1920 208">
  <defs>
    <style>
      .cls-1 {
        stroke-width: 3px;
      }

      .cls-1, .cls-2 {
        fill: none;
        stroke: #fff;
        stroke-miterlimit: 10;
      }

      .cls-3 {
        fill: #fff;
        stroke-width: 0px;
      }
    </style>
  </defs>
  <rect class="cls-3" y="189.66" width="162.11" height="20.73"/>
  <rect class="cls-3" x="451.89" y="189.33" width="64" height="19.58"/>
  <rect class="cls-3" x="361.15" y="189.33" width="70" height="19.58"/>
  <rect class="cls-3" x="361.15" y="127.56" width="19.58" height="62.69"/>
  <rect class="cls-3" x="185.22" y="189.66" width="18.67" height="20.73"/>
  <rect class="cls-3" x="306.21" y="147.05" width="18.67" height="20.45"/>
  <rect class="cls-3" x="625.67" y="150.99" width="18.67" height="25.26"/>
  <rect class="cls-2" x="185.22" y="48.48" width="18.67" height="18.67"/>
  <rect class="cls-2" x="749.22" y="81.81" width="18.67" height="18.67"/>
  <rect class="cls-2" x="19.3" y="63.15" width="18.67" height="18.67"/>
  <rect class="cls-3" x="107.65" y="150.85" width="18.67" height="18.67"/>
  <rect class="cls-3" x="64.63" y="24.74" width="18.67" height="18.67"/>
  <rect class="cls-3" x="143.44" y="150.85" width="18.67" height="18.67"/>
  <rect class="cls-3" x="396.15" y="172.12" width="18.67" height="18.67"/>
  <rect class="cls-3" x="19.3" y="144.86" width="18.67" height="18.67"/>
  <rect class="cls-3" x="19.3" y="119.06" width="18.67" height="18.67"/>
  <rect class="cls-3" x="45.96" y="119.06" width="23.04" height="55.98"/>
  <rect class="cls-3" x="64.63" y="62.07" width="18.67" height="108.59"/>
  <rect class="cls-3" x="795.89" y="72.48" width="18.67" height="18.67"/>
  <rect class="cls-2" x="648.33" y="12.22" width="18.67" height="18.67"/>
  <rect class="cls-2" x="1226.85" y="12.22" width="18.67" height="18.67"/>
  <rect class="cls-3" x="914.8" y="63.15" width="18.67" height="18.67"/>
  <rect class="cls-3" x="1023.44" y="81.81" width="18.67" height="18.67"/>
  <rect class="cls-3" x="1169.22" y="132.19" width="18.67" height="18.67"/>
  <rect class="cls-2" x="1888" y="19.44" width="18.67" height="18.67"/>
  <rect class="cls-3" x="1498.85" y="10.11" width="18.67" height="18.67"/>
  <rect class="cls-3" x="1548.98" y="118.85" width="18.67" height="18.67"/>
  <rect class="cls-3" x="1576.21" y="153.34" width="18.67" height="20.73"/>
  <rect class="cls-3" x="1576.21" y="172.01" width="40.07" height="20.01"/>
  <rect class="cls-3" x="1576.21" y="189.33" width="59.62" height="19.58"/>
  <rect class="cls-3" x="1676.98" y="28.78" width="18.67" height="18.67"/>
  <rect class="cls-3" x="1810.31" y="132.19" width="18.67" height="18.67"/>
  <rect class="cls-3" x="1901.33" y="86.25" width="18.67" height="18.67"/>
  <rect class="cls-3" x="1882.67" y="170.67" width="25.22" height="25.22"/>
  <rect class="cls-3" x="582.02" y="189.33" width="141.87" height="19.58"/>
  <rect class="cls-3" x="748.76" y="189.33" width="141.87" height="19.58"/>
  <rect class="cls-3" x="748.76" y="171.66" width="56.46" height="19.58"/>
  <rect class="cls-3" x="748.76" y="114.17" width="19.58" height="59.24"/>
  <rect class="cls-3" x="19.3" y="170.67" width="64" height="23.69"/>
  <rect class="cls-3" x="921.22" y="189.33" width="64" height="19.58"/>
  <rect class="cls-3" x="1159.44" y="170.67" width="64" height="21.35"/>
  <rect class="cls-3" x="603" y="170.67" width="64" height="21.57"/>
  <rect class="cls-3" x="260.88" y="165.71" width="64" height="21.57"/>
  <rect class="cls-3" x="237.02" y="186.43" width="87.86" height="23.96"/>
  <rect class="cls-3" x="1856" y="189.33" width="64" height="18.67"/>
  <rect class="cls-3" x="1875.39" y="151.28" width="70.56" height="18.67" transform="translate(2071.28 -1750.06) rotate(90)"/>
  <rect class="cls-3" x="1764.98" y="189.33" width="64" height="18.67"/>
  <rect class="cls-3" x="1159.44" y="189.33" width="134.81" height="19.58"/>
  <line class="cls-1" x1="648.33" y1="43.33" x2="772.83" y2="43.33"/>
  <line class="cls-1" x1="1021.58" y1="43.33" x2="1146.08" y2="43.33"/>
  <g id="F000000ff">
    <path class="cls-2" d="M882.97,57.37h7.06c38.57,1.35,74.92,26.22,90.04,61.73,13.92,31.42,10.64,69.75-8.73,98.19-16.37,24.89-44.08,41.9-73.72,45.12-29.11,3.53-59.44-6.24-81-26.11-21.45-19.23-34.04-47.9-33.62-76.72-.07-29.82,13.86-59.2,36.82-78.16,17.52-14.92,40.21-23.2,63.15-24.05M870.02,94.3c-27.53,6.62-48.43,32.6-50.07,60.71-2.4,26.62,12.37,53.89,36.28,65.97,22.38,11.9,51.52,8.62,70.86-7.71,24.58-19.7,31.91-57,17.12-84.71-13.01-26.67-45.34-42.1-74.19-34.26Z"/>
    <path class="cls-2" d="M324.88,63.41c10.97-2.18,22.27-1.09,33.37-.93,3.22-.51,3.35,3.75,3.42,5.88.02,43.77-.02,87.56,0,131.32,35.08-43.7,70.01-87.51,104.96-131.28,2.4-2.86,5.2-6.2,9.33-6,13.59-.42,27.22-.2,40.84.11-2.98,7.02-8.35,12.48-12.99,18.36-45.7,57.2-91.44,114.38-137.12,171.6-2.26,2.51-4.73,5.73-8.53,5.55-11.08.62-22.21.27-33.29-.24V63.41Z"/>
    <path class="cls-2" d="M566.23,76.76c4.75-6.08,9.93-13.52,18.36-14.19,9.42-.53,18.9-.62,28.31,0,3,1.6,1.87,5.33,2.2,8.04-.11,54.8-.02,109.61-.04,164.43-.09,7.66.53,15.39-.8,22.98-10.59.29-21.18.42-31.78.13-3.89.33-6.77-2.58-8.97-5.33-16.81-21.03-33.51-42.1-50.45-63.02-16.68,20.83-33.35,41.68-49.96,62.55-2.2,2.51-4.57,5.75-8.33,5.68-13.63.53-27.29.13-40.95.11-.38-3.55,2.51-6.04,4.35-8.68,46.1-57.51,92.06-115.11,138.05-172.71M543.51,160.21c11.55,14.5,23.09,28.98,34.71,43.43-.02-28.89.09-57.76-.07-86.65-11.66,14.32-23.05,28.84-34.64,43.21Z"/>
    <path class="cls-2" d="M659.2,70.85c.47-2.8-1.18-8.06,3.13-8.37,11.19.18,22.87-1.75,33.77,1.22-.11,53.2-.04,106.41-.04,159.61,28.33.22,56.67-.44,84.96.38-3.66,8.62-11.01,14.86-16.3,22.43-4.37,4.89-7.95,12.86-15.7,12.1-29.78-.22-59.58.67-89.31-.47-1.11-62.29-.11-124.62-.51-186.9Z"/>
    <path class="cls-2" d="M1021.59,73.07c.33-3.84-1.51-11.32,4.66-10.75,48.98-.18,97.99,0,146.98-.09,2.49-.18,7.08.33,6.33,4-.07,14.59.89,29.33-.53,43.83-14.86,21.03-32.09,40.44-47.85,60.82,20.98,26.22,41.86,52.54,62.95,78.67,1.93,2.55,4.29,5.13,4.42,8.53-13.63.18-27.27.4-40.9,0-5.02-.04-7.64-5-10.57-8.28-20.65-26.58-42.57-52.23-62.6-79.27,19.3-24.58,39.04-48.81,58.4-73.32-28.13-.02-56.27-.04-84.4.02-.31,53.49.58,107.01-.44,160.48-11.95.89-23.98.91-35.93,0-1.09-61.53-.07-123.08-.51-184.64Z"/>
    <path class="cls-2" d="M1229.17,68.3c-.29-2.44.51-6.53,3.89-5.91,10.64.02,21.43-.87,31.98.51,5.31,2.69,8.15,8.42,11.99,12.72,46.03,57.56,91.97,115.18,138.07,172.67,2.18,3,5.4,5.8,5.31,9.84-13.52.09-27.09.38-40.61-.04-3.82.2-6.35-3-8.57-5.6-16.63-20.94-33.37-41.81-50.07-62.71-16.88,20.9-33.6,41.97-50.36,62.97-2.22,2.71-5.04,5.68-8.88,5.4-9.68.22-19.41.27-29.09-.07-4.26.6-3.46-4.86-3.66-7.42.07-60.8,0-121.6.02-182.37M1265.96,116.91c-.07,28.91-.02,57.82-.02,86.71,11.66-14.41,23.2-28.91,34.77-43.41-11.68-14.37-23.07-28.96-34.75-43.3Z"/>
    <path class="cls-2" d="M1392.73,63.81c5.26-3.22,12.17-.89,18.08-1.58,7.24.78,16.72-2.53,21.92,4.22,35.62,44.34,71.03,88.87,106.61,133.28.24-45.21-.51-90.46.36-135.63.6-.4,1.75-1.2,2.35-1.6,10.17-.47,20.43-.42,30.62-.04,4.6-.13,3.11,5.51,3.51,8.35-.38,62.31.58,124.64-.47,186.9-10.55.95-21.14.56-31.71.49-4,.33-7.08-2.33-9.3-5.28-35.2-44.03-70.3-88.11-105.59-132.08-.27,27.25.47,54.51-.38,81.74-3-.82-5.2-2.84-6.95-5.26-8.75-11.28-17.88-22.27-26.67-33.53-3.77-4.26-2.71-10.21-2.91-15.43.44-28.18-.64-56.4.53-84.54Z"/>
    <path class="cls-2" d="M1602.06,64.19c1.95-2.55,5.6-1.64,8.39-2,36.28.09,72.57.11,108.85,0,5.55.51,12.3-1.4,16.96,2.51,8.28,8.93,15.43,18.9,23.07,28.38v4.06c-21.92.13-43.83-.02-65.75.09-.22,53.56.67,107.12-.27,160.66-12.04.51-24.12.75-36.13-.16-.64-53.49-.18-107.01-.44-160.52-17.56-.33-35.17.56-52.69-.36-.51-.51-1.51-1.51-2-2.02-.75-10.17-.67-20.47,0-30.64Z"/>
  </g>
  <line class="cls-1" x1="126.31" y1="138.04" x2="126.31" y2="48.48"/>
  <line class="cls-1" x1="1856" y1="148.78" x2="1856" y2="59.22"/>
</svg>